0
SECTION
2
HEADER
9
$INSUNITS
70
4
9
$ACADVER
1
AC1014
9
$HANDSEED
5
FFFF
0
ENDSEC
0
SECTION
2
TABLES
0
TABLE
2
VPORT
5
8
100
AcDbSymbolTable
0
ENDTAB
0
TABLE
2
LTYPE
5
5
100
AcDbSymbolTable
0
LTYPE
5
14
100
AcDbSymbolTableRecord
100
AcDbLinetypeTableRecord
2
BYBLOCK
70
0
0
LTYPE
5
15
100
AcDbSymbolTableRecord
100
AcDbLinetypeTableRecord
2
BYLAYER
70
0
0
LTYPE
5
16
100
AcDbSymbolTableRecord
100
AcDbLinetypeTableRecord
2
DASHED
70
0
3
Dashed __ __ __ __ __ __ __ __ __ __ __ __ __ _
72
65
73
2
40
0.75
49
0.5
74
0
49
-0.25
74
0
0
ENDTAB
0
TABLE
2
LAYER
5
2
100
AcDbSymbolTable
70
2
0
LAYER
5
50
100
AcDbSymbolTableRecord
100
AcDbLayerTableRecord
2
0
70
0
62
7
6
CONTINUOUS
0
ENDTAB
0
TABLE
2
STYLE
5
3
100
AcDbSymbolTable
70
1
0
STYLE
5
11
100
AcDbSymbolTableRecord
100
AcDbTextStyleTableRecord
2
STANDARD
70
0
0
ENDTAB
0
TABLE
2
VIEW
5
6
100
AcDbSymbolTable
70
0
0
ENDTAB
0
TABLE
2
UCS
5
7
100
AcDbSymbolTable
70
0
0
ENDTAB
0
TABLE
2
APPID
5
9
100
AcDbSymbolTable
70
2
0
APPID
5
12
100
AcDbSymbolTableRecord
100
AcDbRegAppTableRecord
2
ACAD
70
0
0
ENDTAB
0
TABLE
2
DIMSTYLE
5
A
100
AcDbSymbolTable
70
1
0
ENDTAB
0
TABLE
2
BLOCK_RECORD
5
1
100
AcDbSymbolTable
70
1
0
BLOCK_RECORD
5
1F
100
AcDbSymbolTableRecord
100
AcDbBlockTableRecord
2
*MODEL_SPACE
0
BLOCK_RECORD
5
1B
100
AcDbSymbolTableRecord
100
AcDbBlockTableRecord
2
*PAPER_SPACE
0
ENDTAB
0
ENDSEC
0
SECTION
2
BLOCKS
0
BLOCK
5
20
100
AcDbEntity
100
AcDbBlockBegin
2
*MODEL_SPACE
0
ENDBLK
5
21
100
AcDbEntity
100
AcDbBlockEnd
0
BLOCK
5
1C
100
AcDbEntity
100
AcDbBlockBegin
2
*PAPER_SPACE
0
ENDBLK
5
1D
100
AcDbEntity
100
AcDbBlockEnd
0
ENDSEC
0
SECTION
2
ENTITIES
0
LWPOLYLINE
5
100
100
AcDbEntity
8
0
100
AcDbPolyline
90
64
70
1
43
0.0
10
-83.125000000000114
20
134.99999999999997
42
0.41421356237309509
10
-85.125000000000099
20
132.99999999999997
10
-85.125000000000085
20
130.34924240491748
42
-0.19891236737964876
10
-85.271446609406809
20
129.9956890143242
10
-88.478553390593575
20
126.78858223313767
42
-0.19891236737968684
10
-88.832106781186852
20
126.64213562373094
10
-92.660533905932823
20
126.64213562373092
42
0.19891236737965801
10
-93.014087296526085
20
126.49568901432423
10
-102.62068901432428
20
116.88908729652599
42
0.19891236737966453
10
-102.76713562373104
20
116.53553390593272
10
-102.76713562373102
20
112.70710678118658
42
-0.19891236737959497
10
-102.91358223313776
20
112.35355339059331
10
-106.1206890143243
20
109.14644660940672
42
-0.19891236737969992
10
-106.47424240491758
20
108.99999999999999
10
-109.12500000032905
20
109
42
0.41421356237311319
10
-111.12500000032907
20
107.00000000000001
10
-111.12500000032907
20
-107.00000000071975
42
0.41421356237310281
10
-109.12500000032907
20
-109.00000000071972
10
-106.4742424049998
20
-109.00000000071975
42
-0.19891236737968027
10
-106.12068901440652
20
-109.14644661012646
10
-102.91358223321996
20
-112.35355339131323
42
-0.19891236737962267
10
-102.76713562381325
20
-112.7071067819065
10
-102.76713562381325
20
-116.53553390665246
42
0.19891236737965798
10
-102.62068901440654
20
-116.88908729724574
10
-93.014087296608324
20
-126.49568901504395
42
0.19891236737965798
10
-92.660533906015047
20
-126.64213562445069
10
-88.832106781268891
20
-126.64213562445067
42
-0.1989123673795884
10
-88.478553390675629
20
-126.7885822338574
10
-85.271446609489047
20
-129.99568901504395
42
-0.19891236737968684
10
-85.125000000082309
20
-130.34924240563723
10
-85.125000000082309
20
-133.00000000000003
42
0.41421356237309509
10
-83.125000000082309
20
-135.00000000000003
10
83.124999999958931
20
-135.00000000000003
42
0.41421356237309509
10
85.124999999958931
20
-133.00000000000003
10
85.124999999958945
20
-130.3492424049175
42
-0.19891236737965798
10
85.271446609365654
20
-129.99568901432423
10
88.47855339055242
20
-126.78858223313769
42
-0.19891236737968027
10
88.832106781145683
20
-126.64213562373095
10
92.660533905891654
20
-126.64213562373095
42
0.19891236737965798
10
93.014087296484931
20
-126.49568901432424
10
102.62068901428314
20
-116.88908729652603
42
0.19891236737965798
10
102.76713562368988
20
-116.53553390593275
10
102.76713562368985
20
-112.70710678118661
42
-0.1989123673795884
10
102.91358223309659
20
-112.35355339059333
10
106.12068901428313
20
-109.14644660940674
42
-0.19891236737965798
10
106.47424240487641
20
-109
10
109.1249999999589
20
-109.00000000000003
42
0.41421356237311063
10
111.1249999999589
20
-107.00000000000001
10
111.12499999995892
20
106.99999999999997
42
0.41421356237309243
10
109.12499999995893
20
108.99999999999994
10
106.47424240487641
20
108.99999999999999
42
-0.19891236737965798
10
106.12068901428313
20
109.14644660940669
10
102.91358223309659
20
112.35355339059348
42
-0.19891236737969334
10
102.76713562368985
20
112.70710678118674
10
102.76713562368985
20
116.53553390593271
42
0.19891236737965798
10
102.62068901428314
20
116.88908729652597
10
93.014087296484931
20
126.49568901432417
42
0.19891236737966453
10
92.660533905891654
20
126.64213562373092
10
88.832106781145512
20
126.64213562373091
42
-0.19891236737968684
10
88.478553390552221
20
126.78858223313765
10
85.271446609365626
20
129.99568901432417
42
-0.19891236737965154
10
85.124999999958902
20
130.34924240491745
10
85.124999999958931
20
132.99999999999997
42
0.41421356237311063
10
83.124999999958916
20
134.99999999999997
0
CIRCLE
5
101
100
AcDbEntity
8
0
100
AcDbCircle
10
93.22119407767147
20
117.09619407771251
30
0
40
2.5500000000000078
210
-6.9089348440755557e-77
220
-3.944304526105059e-31
230
1
0
CIRCLE
5
102
100
AcDbEntity
8
0
100
AcDbCircle
10
-93.221194077794877
20
-117.09619407843229
30
0
40
2.5500000000000078
210
-6.9089348440755557e-77
220
-3.944304526105059e-31
230
1
0
CIRCLE
5
103
100
AcDbEntity
8
0
100
AcDbCircle
10
-93.221194077712624
20
117.09619407771255
30
0
40
2.5500000000000078
210
-6.9089348440755557e-77
220
-3.944304526105059e-31
230
1
0
CIRCLE
5
104
100
AcDbEntity
8
0
100
AcDbCircle
10
93.221194077671484
20
-117.09619407771257
30
0
40
2.5500000000000078
210
-6.9089348440755557e-77
220
-3.944304526105059e-31
230
1
0
ENDSEC
0
SECTION
2
OBJECTS
0
DICTIONARY
5
C
100
AcDbDictionary
3
ACAD_GROUP
350
D
3
ACAD_MLINESTYLE
350
17
0
DICTIONARY
5
D
100
AcDbDictionary
0
DICTIONARY
5
1A
330
C
100
AcDbDictionary
0
DICTIONARY
5
17
100
AcDbDictionary
0
ENDSEC
0
EOF
