0
SECTION
2
HEADER
9
$INSUNITS
70
4
9
$ACADVER
1
AC1014
9
$HANDSEED
5
FFFF
0
ENDSEC
0
SECTION
2
TABLES
0
TABLE
2
VPORT
5
8
100
AcDbSymbolTable
0
ENDTAB
0
TABLE
2
LTYPE
5
5
100
AcDbSymbolTable
0
LTYPE
5
14
100
AcDbSymbolTableRecord
100
AcDbLinetypeTableRecord
2
BYBLOCK
70
0
0
LTYPE
5
15
100
AcDbSymbolTableRecord
100
AcDbLinetypeTableRecord
2
BYLAYER
70
0
0
LTYPE
5
16
100
AcDbSymbolTableRecord
100
AcDbLinetypeTableRecord
2
DASHED
70
0
3
Dashed __ __ __ __ __ __ __ __ __ __ __ __ __ _
72
65
73
2
40
0.75
49
0.5
74
0
49
-0.25
74
0
0
ENDTAB
0
TABLE
2
LAYER
5
2
100
AcDbSymbolTable
70
2
0
LAYER
5
50
100
AcDbSymbolTableRecord
100
AcDbLayerTableRecord
2
0
70
0
62
7
6
CONTINUOUS
0
ENDTAB
0
TABLE
2
STYLE
5
3
100
AcDbSymbolTable
70
1
0
STYLE
5
11
100
AcDbSymbolTableRecord
100
AcDbTextStyleTableRecord
2
STANDARD
70
0
0
ENDTAB
0
TABLE
2
VIEW
5
6
100
AcDbSymbolTable
70
0
0
ENDTAB
0
TABLE
2
UCS
5
7
100
AcDbSymbolTable
70
0
0
ENDTAB
0
TABLE
2
APPID
5
9
100
AcDbSymbolTable
70
2
0
APPID
5
12
100
AcDbSymbolTableRecord
100
AcDbRegAppTableRecord
2
ACAD
70
0
0
ENDTAB
0
TABLE
2
DIMSTYLE
5
A
100
AcDbSymbolTable
70
1
0
ENDTAB
0
TABLE
2
BLOCK_RECORD
5
1
100
AcDbSymbolTable
70
1
0
BLOCK_RECORD
5
1F
100
AcDbSymbolTableRecord
100
AcDbBlockTableRecord
2
*MODEL_SPACE
0
BLOCK_RECORD
5
1B
100
AcDbSymbolTableRecord
100
AcDbBlockTableRecord
2
*PAPER_SPACE
0
ENDTAB
0
ENDSEC
0
SECTION
2
BLOCKS
0
BLOCK
5
20
100
AcDbEntity
100
AcDbBlockBegin
2
*MODEL_SPACE
0
ENDBLK
5
21
100
AcDbEntity
100
AcDbBlockEnd
0
BLOCK
5
1C
100
AcDbEntity
100
AcDbBlockBegin
2
*PAPER_SPACE
0
ENDBLK
5
1D
100
AcDbEntity
100
AcDbBlockEnd
0
ENDSEC
0
SECTION
2
ENTITIES
0
CIRCLE
5
100
100
AcDbEntity
8
0
100
AcDbCircle
10
67.499999996032599
20
403.41441049846208
30
0
40
2.1499999999999897
210
-1.5607289186891963e-58
220
-3.97808537013071e-100
230
1
0
CIRCLE
5
101
100
AcDbEntity
8
0
100
AcDbCircle
10
-67.500000003967429
20
292.41441049846202
30
0
40
2.1499999999999897
210
-1.5607289186891963e-58
220
-3.97808537013071e-100
230
1
0
CIRCLE
5
102
100
AcDbEntity
8
0
100
AcDbCircle
10
-67.500000002962452
20
193.58558950683471
30
0
40
2.1499999999999897
210
-1.5607289186891963e-58
220
-3.97808537013071e-100
230
1
0
CIRCLE
5
103
100
AcDbEntity
8
0
100
AcDbCircle
10
67.499999997037577
20
82.585589506834637
30
0
40
2.1499999999999897
210
-1.5607289186891963e-58
220
-3.97808537013071e-100
230
1
0
CIRCLE
5
104
100
AcDbEntity
8
0
100
AcDbCircle
10
67.499999996032599
20
292.41441049846196
30
0
40
2.1499999999999897
210
-1.5607289186891963e-58
220
-3.97808537013071e-100
230
1
0
CIRCLE
5
105
100
AcDbEntity
8
0
100
AcDbCircle
10
-67.500000003967401
20
403.41441049846208
30
0
40
2.1499999999999897
210
-1.5607289186891963e-58
220
-3.97808537013071e-100
230
1
0
CIRCLE
5
106
100
AcDbEntity
8
0
100
AcDbCircle
10
67.499999997037577
20
193.58558950683471
30
0
40
2.1499999999999897
210
-1.5607289186891963e-58
220
-3.97808537013071e-100
230
1
0
CIRCLE
5
107
100
AcDbEntity
8
0
100
AcDbCircle
10
-67.500000002962452
20
82.585589506834637
30
0
40
2.1499999999999897
210
-1.5607289186891963e-58
220
-3.97808537013071e-100
230
1
0
ARC
5
108
100
AcDbEntity
8
0
100
AcDbCircle
10
109.12499999930085
20
48.000000018939261
30
-4.3191877715089882e-47
40
1.9999999999999929
210
1.7791984602655279e-33
220
2.1595938855892108e-47
230
1
100
AcDbArc
50
-89.999999995287283
51
0
0
LINE
5
109
100
AcDbEntity
8
0
100
AcDbLine
10
111.12499999930083
20
97.000000018692432
30
0
11
111.12499999930078
21
223.0000000000183
31
0
0
ARC
5
110
100
AcDbEntity
8
0
100
AcDbCircle
10
109.12499999930083
20
223.00000000001833
30
-1.1734506183188776e-45
40
1.9999999999999574
210
-3.6777242410869709e-46
220
1.2325951644078134e-32
230
1
100
AcDbArc
50
0
51
90.00000000000081
0
LINE
5
111
100
AcDbEntity
8
0
100
AcDbLine
10
109.1249999993008
20
225.00000000001825
30
-2.4651903288156701e-32
11
104.53921356120088
21
225.00000000001836
31
-8.0592177929481042e-42
0
ARC
5
112
100
AcDbEntity
8
0
100
AcDbCircle
10
104.53921356120085
20
226.00000000001828
30
2.6445403147536221e-45
40
0.99999999999991007
210
-8.0600080760175842e-42
220
1.232595164407692e-32
230
1
100
AcDbArc
50
224.99999999999653
51
270.00000000000159
0
LINE
5
113
100
AcDbEntity
8
0
100
AcDbLine
10
103.83210678001433
20
225.29289321883184
30
8.7157639864062898e-33
11
103.12499999882778
21
226.00000000001836
31
-7.2528626590558025e-26
0
LINE
5
114
100
AcDbEntity
8
0
100
AcDbLine
10
103.12499999882778
20
226.00000000001836
30
-7.2528626590558025e-26
11
101.41789321764125
21
227.70710678120491
31
1.1396266741323703e-26
0
ARC
5
115
100
AcDbEntity
8
0
100
AcDbCircle
10
102.1249999988278
20
228.41421356239147
30
-1.0656847452079602e-45
40
1.0000000000000142
210
1.0631188910862566e-45
220
-8.7157639921047357e-33
230
1
100
AcDbArc
50
180
51
225
0
LINE
5
116
100
AcDbEntity
8
0
100
AcDbLine
10
101.12499999882779
20
228.41421356239147
30
-2.5658541216885078e-48
11
101.12499999882775
21
232.58578643764525
31
0
0
ARC
5
117
100
AcDbEntity
8
0
100
AcDbCircle
10
102.12499999882773
20
232.58578643764531
30
-4.3411754578359325e-56
40
0.99999999999993527
210
-1.728656291219779e-42
220
1.9913648889155649e-56
230
1
100
AcDbArc
50
135
51
180
0
LINE
5
118
100
AcDbEntity
8
0
100
AcDbLine
10
101.41789321764124
20
233.29289321883181
30
-1.2223445858622559e-42
11
103.83210678001433
21
235.70710678120491
31
0
0
ARC
5
119
100
AcDbEntity
8
0
100
AcDbCircle
10
103.12499999882778
20
236.41421356239147
30
0
40
0.999999999999998
210
-0
220
0
230
1
100
AcDbArc
50
-45
51
0
0
LINE
5
120
100
AcDbEntity
8
0
100
AcDbLine
10
104.1249999988278
20
236.41421356239147
30
4.3578819960526155e-33
11
104.1249999988278
21
249.5857864376454
31
0
0
ARC
5
121
100
AcDbEntity
8
0
100
AcDbCircle
10
103.12499999882778
20
249.5857864376454
30
0
40
1.0000000000000142
210
0
220
-1.7440281550984112e-113
230
1
100
AcDbArc
50
0
51
44.999999999989065
0
LINE
5
122
100
AcDbEntity
8
0
100
AcDbLine
10
103.83210678001446
20
250.29289321883181
30
-2.310745820121564e-65
11
101.41789321764111
21
252.70710678120605
31
0
0
ARC
5
123
100
AcDbEntity
8
0
100
AcDbCircle
10
102.12499999882758
20
253.41421356239238
30
1.9457727089471184e-47
40
0.99999999999978328
210
4.3578819960524007e-33
220
-4.3578819960532156e-33
230
1
100
AcDbArc
50
180
51
224.9999999999942
0
LINE
5
124
100
AcDbEntity
8
0
100
AcDbLine
10
101.12499999882779
20
253.41421356239243
30
4.3578819960517862e-33
11
101.12499999882775
21
257.58578643764633
31
0
0
ARC
5
125
100
AcDbEntity
8
0
100
AcDbCircle
10
102.12499999882769
20
257.58578643764645
30
5.2014450898474567e-55
40
0.99999999999992273
210
2.8842225641962457e-42
220
2.3800793152318833e-55
230
1
100
AcDbArc
50
134.99999999999886
51
180
0
LINE
5
126
100
AcDbEntity
8
0
100
AcDbLine
10
101.41789321764122
20
258.29289321883294
30
2.0394533335945607e-42
11
103.83210677987073
21
260.70710678139551
31
0
0
ELLIPSE
5
127
100
AcDbEntity
8
0
100
AcDbEllipse
10
104.53921356098276
20
260.00000000001808
30
0
11
1.0000000001645082
21
5.2482392017324352e-15
31
0.0
40
0.99999999983549193
41
1.570796326794996
42
2.3561944899224598
0
LINE
5
128
100
AcDbEntity
8
0
100
AcDbLine
10
104.53921356098265
20
261.00000000001808
30
1.5556124846931325e-55
11
109.12499999930077
21
261.00000000001836
31
7.1571695092158463e-58
0
ARC
5
129
100
AcDbEntity
8
0
100
AcDbCircle
10
109.12499999930078
20
263.00000000001836
30
-1.1460815076875335e-46
40
2.0000000000000284
210
5.2340711332929548e-33
220
1.0816185107072576e-47
230
1
100
AcDbArc
50
-90.000000000000398
51
0
0
LINE
5
130
100
AcDbEntity
8
0
100
AcDbLine
10
111.12499999930078
20
263.00000000001836
30
-1.0468142266585988e-32
11
111.12499999930067
21
438.26794919517715
31
0
0
ARC
5
131
100
AcDbEntity
8
0
100
AcDbCircle
10
109.12499999930068
20
438.26794919517715
30
3.5066672996409607e-47
40
1.9999999999999929
210
1.7533336498204867e-47
220
3.081487926354204e-33
230
1
100
AcDbArc
50
0
51
59.9999998353831
0
LINE
5
132
100
AcDbEntity
8
0
100
AcDbLine
10
110.12500000427707
20
439.99999999987295
30
3.8487811825327617e-47
11
106.47424240919456
21
439.9999999992724
31
0
0
ARC
5
133
100
AcDbEntity
8
0
100
AcDbCircle
10
106.47424240911209
20
440.49999999927195
30
-1.1079954241926206e-54
40
0.49999999999953426
210
-7.1746481373434508e-42
220
-1.1809673178004248e-51
230
1
100
AcDbArc
50
225.00000000940531
51
270.00000000944988
0
LINE
5
134
100
AcDbEntity
8
0
100
AcDbLine
10
106.1206890185772
20
440.14644660862098
30
-2.5366211752713384e-42
11
102.91358223686299
21
443.35355338928014
31
0
0
ARC
5
135
100
AcDbEntity
8
0
100
AcDbCircle
10
103.2671356273984
20
443.70710677993156
30
0
40
0.5000000000002558
210
0
220
0
230
1
100
AcDbArc
50
180
51
225.00000000940071
0
LINE
5
136
100
AcDbEntity
8
0
100
AcDbLine
10
102.76713562739815
20
443.70710677984925
30
0
11
102.76713562676835
21
447.5355339045953
31
0
0
ARC
5
137
100
AcDbEntity
8
0
100
AcDbCircle
10
102.26713562676835
20
447.53553390451304
30
0
40
0.50000000000000711
210
0
220
-0
230
1
100
AcDbArc
50
0
51
45.000000009426039
0
LINE
5
138
100
AcDbEntity
8
0
100
AcDbLine
10
102.62068901730345
20
447.88908729516447
30
-1.5219727051627827e-42
11
93.014087297924874
21
457.49568901138224
31
0
0
ARC
5
139
100
AcDbEntity
8
0
100
AcDbCircle
10
92.660533907389762
20
457.14213562073087
30
0
40
0.49999999999998646
210
0
220
-0
230
1
100
AcDbArc
50
45.00000000942029
51
90.000000009423815
0
LINE
5
140
100
AcDbEntity
8
0
100
AcDbLine
10
92.660533907307524
20
457.64213562073087
30
0
11
88.832106782561368
21
457.64213562010104
31
0
0
ARC
5
141
100
AcDbEntity
8
0
100
AcDbCircle
10
88.832106782478903
20
458.14213562010059
30
-1.6661750025556535e-54
40
0.49999999999955941
210
-5.7397185098739792e-42
220
-9.4326302959549809e-52
230
1
100
AcDbArc
50
225.00000000940184
51
270.00000000944988
0
LINE
5
142
100
AcDbEntity
8
0
100
AcDbLine
10
88.478553391943962
20
457.78858222944962
30
-2.029296940217245e-42
11
85.271446610229759
21
460.99568901010855
31
0
0
ARC
5
143
100
AcDbEntity
8
0
100
AcDbCircle
10
85.625000000765183
20
461.34924240076003
30
0
40
0.50000000000027356
210
0
220
0
230
1
100
AcDbArc
50
180
51
225.00000000940415
0
LINE
5
144
100
AcDbEntity
8
0
100
AcDbLine
10
85.125000000764913
20
461.34924240067767
30
0
11
85.125000000164334
21
464.99999999576028
31
0
0
ARC
5
145
100
AcDbEntity
8
0
100
AcDbCircle
10
83.392949190125947
20
464.00000000003735
30
-3.3056657155998385e-55
40
2.0000000000001159
210
-1.0027617828331755e-42
220
1.7368343656600263e-42
230
1
100
AcDbArc
50
29.999999858513629
51
89.999999999997556
0
LINE
5
146
100
AcDbEntity
8
0
100
AcDbLine
10
83.392949190126032
20
466.00000000003746
30
1.3939554222408957e-56
11
-83.12500000000027
21
466.00000000003729
31
4.1789873127710776e-40
0
ARC
5
147
100
AcDbEntity
8
0
100
AcDbCircle
10
-83.125000000000284
20
464.00000000003735
30
4.7895943604852146e-47
40
1.9999999999999574
210
5.234071133292924e-33
220
-2.0894938817847681e-40
230
1
100
AcDbArc
50
89.999999999999588
51
180
0
LINE
5
148
100
AcDbEntity
8
0
100
AcDbLine
10
-85.125000000000242
20
464.00000000003729
30
1.0468142266585673e-32
11
-85.125000000000298
21
461.34924240495479
31
0
0
ARC
5
149
100
AcDbEntity
8
0
100
AcDbCircle
10
-85.625000000000512
20
461.34924240495491
30
-2.2477531183634444e-55
40
0.50000000000021261
210
-8.2956869088039828e-43
220
1.4704238339752531e-55
230
1
100
AcDbArc
50
315.00000000001148
51
360
0
LINE
5
150
100
AcDbEntity
8
0
100
AcDbLine
10
-85.271446609407036
20
460.99568901436157
30
2.9329682339079176e-43
11
-88.478553390593845
21
457.78858223317502
31
0
0
ARC
5
151
100
AcDbEntity
8
0
100
AcDbCircle
10
-88.832106781187207
20
458.14213562376864
30
-3.6016039021434355e-45
40
0.50000000000032685
210
-4.3578819960533305e-33
220
4.3578819960559299e-33
230
1
100
AcDbArc
50
270.00000000001626
51
314.99999999997931
0
LINE
5
152
100
AcDbEntity
8
0
100
AcDbLine
10
-88.832106781187065
20
457.6421356237683
30
2.178940998026407e-33
11
-92.660533905933022
21
457.6421356237683
31
-5.9751369266851615e-58
0
ARC
5
153
100
AcDbEntity
8
0
100
AcDbCircle
10
-92.660533905933022
20
457.14213562376824
30
0
40
0.50000000000004263
210
3.2678880757074796e-65
220
1.1950273853369304e-57
230
1
100
AcDbArc
50
90
51
134.99999999999773
0
LINE
5
154
100
AcDbEntity
8
0
100
AcDbLine
10
-93.014087296526327
20
457.49568901436157
30
1.1553729092457779e-65
11
-102.6206890143245
21
447.88908729656333
31
0
0
ARC
5
155
100
AcDbEntity
8
0
100
AcDbCircle
10
-102.26713562373124
20
447.53553390597006
30
0
40
0.499999999999999
210
4.3578819960528454e-33
220
4.3578819960524075e-33
230
1
100
AcDbArc
50
134.99999999999886
51
180
0
LINE
5
156
100
AcDbEntity
8
0
100
AcDbLine
10
-102.76713562373124
20
447.53553390597006
30
2.1938052740436742e-46
11
-102.76713562373125
21
443.70710678122396
31
0
0
ARC
5
157
100
AcDbEntity
8
0
100
AcDbCircle
10
-103.26713562373145
20
443.70710678122407
30
-1.1374676245485709e-54
40
0.50000000000025013
210
-4.0110622186552252e-42
220
2.9631509547063612e-55
230
1
100
AcDbArc
50
315.00000000000119
51
360
0
LINE
5
158
100
AcDbEntity
8
0
100
AcDbLine
10
-102.91358223313799
20
443.35355339063062
30
1.4181246472858821e-42
11
-106.12068901432454
21
440.14644660944407
31
0
0
ARC
5
159
100
AcDbEntity
8
0
100
AcDbCircle
10
-106.47424240491789
20
440.50000000003763
30
-3.3835063017999123e-45
40
0.5000000000002558
210
-4.3578819960533305e-33
220
4.3578819960562679e-33
230
1
100
AcDbArc
50
270.00000000001467
51
314.99999999998278
0
LINE
5
160
100
AcDbEntity
8
0
100
AcDbLine
10
-106.47424240491776
20
440.0000000000374
30
2.178940998026407e-33
11
-109.12500003623325
21
440.00000000003729
31
-6.2900784817380226e-42
0
ARC
5
161
100
AcDbEntity
8
0
100
AcDbCircle
10
-109.1250000362331
20
438.00000000003729
30
2.9560777693619684e-47
40
2.0000000000000284
210
-2.7271664017760121e-34
220
3.1450346435750536e-42
230
1
100
AcDbArc
50
90.000000000004079
51
180
0
LINE
5
162
100
AcDbEntity
8
0
100
AcDbLine
10
-111.12500003623322
20
437.99999999987284
30
-5.4543328035520003e-34
11
-111.12500002183866
21
263.00000000084151
31
0
0
ARC
5
163
100
AcDbEntity
8
0
100
AcDbCircle
10
-109.12500002183867
20
263.00000000100607
30
1.0116133635691072e-55
40
1.9999999999999929
210
-5.0580668170962465e-56
220
-9.1086759839117931e-56
230
1
100
AcDbArc
50
180
51
270.00000000471232
0
LINE
5
164
100
AcDbEntity
8
0
100
AcDbLine
10
-109.12500002167418
20
261.00000000100607
30
2.1297155394528719e-56
11
-104.53921358308077
21
261.00000000138323
31
1.0761972206014595e-41
0
ARC
5
165
100
AcDbEntity
8
0
100
AcDbCircle
10
-104.53921358299864
20
260.000000001383
30
5.8844832467454956e-56
40
1.0000000000002367
210
7.1746481373429041e-43
220
5.8980763034772323e-53
230
1
100
AcDbArc
50
45.000000004716469
51
90.000000004705385
0
LINE
5
166
100
AcDbEntity
8
0
100
AcDbLine
10
-103.83210680187013
20
260.70710678262793
30
-5.073242350542688e-43
11
-101.41789323929845
21
258.29289322045338
31
0
0
ARC
5
167
100
AcDbEntity
8
0
100
AcDbCircle
10
-102.12500002042675
20
257.58578643920873
30
9.0403593554158426e-46
40
0.99999999999992539
210
-4.3578819956937039e-33
220
-4.3578819964109613e-33
230
1
100
AcDbArc
50
0
51
45.000000004713598
0
LINE
5
168
100
AcDbEntity
8
0
100
AcDbLine
10
-101.12500002042682
20
257.58578643929093
30
4.357881996052543e-33
11
-101.12500002008372
21
253.41421356403714
31
0
0
ARC
5
169
100
AcDbEntity
8
0
100
AcDbCircle
10
-102.12500002008363
20
253.41421356395486
30
-5.804828651188873e-56
40
0.99999999999992262
210
7.1746481373430124e-43
220
5.9012624872994972e-53
230
1
100
AcDbArc
50
-44.999999995288704
51
0
0
LINE
5
170
100
AcDbEntity
8
0
100
AcDbLine
10
-101.417893238839
20
252.70710678282651
30
-5.0732423505427174e-43
11
-103.83210680101351
21
250.29289322025483
31
0
0
ARC
5
171
100
AcDbEntity
8
0
100
AcDbCircle
10
-103.12500001976879
20
249.58578643912645
30
0
40
1.0000000000000104
210
0
220
0
230
1
100
AcDbArc
50
135.00000000471363
51
180
0
LINE
5
172
100
AcDbEntity
8
0
100
AcDbLine
10
-104.12500001976881
20
249.5857864390442
30
-4.3578819960527353e-33
11
-104.12500001868537
21
236.4142135637903
31
0
0
ARC
5
173
100
AcDbEntity
8
0
100
AcDbCircle
10
-103.12500001868537
20
236.41421356387255
30
0
40
0.99999999999999645
210
0
220
0
230
1
100
AcDbArc
50
180
51
225.00000000470092
0
LINE
5
174
100
AcDbEntity
8
0
100
AcDbLine
10
-103.8321067998139
20
235.70710678262799
30
2.5366211752718527e-42
11
-101.41789323724197
21
233.2928932204523
31
0
0
ARC
5
175
100
AcDbEntity
8
0
100
AcDbCircle
10
-102.12500001837046
20
232.58578643920768
30
6.7139849517515955e-47
40
0.99999999999999645
210
4.3578819964105043e-33
220
-4.3578819956947062e-33
230
1
100
AcDbArc
50
0
51
45.000000004704965
0
LINE
5
176
100
AcDbEntity
8
0
100
AcDbLine
10
-101.12500001837047
20
232.58578643928996
30
-4.3578819960518519e-33
11
-101.12500001802735
21
228.41421356403603
31
0
0
ARC
5
177
100
AcDbEntity
8
0
100
AcDbCircle
10
-102.12500001802761
20
228.41421356395389
30
2.9770905089287702e-55
40
1.0000000000002744
210
7.1746481373441515e-43
220
5.8975107558487803e-53
230
1
100
AcDbArc
50
-44.999999995280056
51
0
0
LINE
5
178
100
AcDbEntity
8
0
100
AcDbLine
10
-101.41789323678262
20
227.70710678282541
30
-5.0732423505427804e-43
11
-103.83210679895598
21
225.29289322025483
31
0
0
ARC
5
179
100
AcDbEntity
8
0
100
AcDbCircle
10
-104.53921358020071
20
226.00000000138326
30
0
40
1.0000000000000497
210
0
220
0
230
1
100
AcDbArc
50
270.00000000471192
51
315.00000000471186
0
LINE
5
180
100
AcDbEntity
8
0
100
AcDbLine
10
-104.53921358011847
20
225.00000000138323
30
0
11
-109.1250000185485
21
225.00000000138317
31
-1.0319687378212075e-41
0
ARC
5
181
100
AcDbEntity
8
0
100
AcDbCircle
10
-109.12500001854852
20
223.00000000138326
30
1.3941140727840892e-46
40
1.9999999999999218
210
2.4957603409444454e-33
220
5.1598912280051222e-42
230
1
100
AcDbArc
50
89.999999999999588
51
180
0
LINE
5
182
100
AcDbEntity
8
0
100
AcDbLine
10
-111.12500001854848
20
223.00000000121869
30
4.9915206818889244e-33
11
-111.12500000415393
21
48.000000000904919
31
0
0
ARC
5
183
100
AcDbEntity
8
0
100
AcDbCircle
10
-109.12500000415393
20
48.000000001069424
30
3.3056657155998385e-56
40
1.9999999999999929
210
-1.6528328576846126e-56
220
-1.4019034781406635e-56
230
1
100
AcDbArc
50
180
51
270.00000000471272
0
LINE
5
184
100
AcDbEntity
8
0
100
AcDbLine
10
-109.12500000398943
20
46.000000001069438
30
5.1943157934324767e-57
11
-106.47424241034641
21
46.00000000158775
31
3.5873240686715317e-42
0
ARC
5
185
100
AcDbEntity
8
0
100
AcDbCircle
10
-106.47424241026415
20
45.500000001587786
30
-1.0504449789029607e-56
40
0.49999999999998018
210
-2.8698592549372215e-42
220
-4.7209988381962206e-52
230
1
100
AcDbArc
50
45.000000009423161
51
90.000000009425435
0
LINE
5
186
100
AcDbEntity
8
0
100
AcDbLine
10
-106.12068901972904
20
45.853553392239192
30
1.0146484701085358e-42
11
-102.91358223801488
21
42.646446611580046
31
0
0
ARC
5
187
100
AcDbEntity
8
0
100
AcDbCircle
10
-103.26713562855002
20
42.292893220928597
30
-7.3982127175351975e-47
40
0.50000000000002487
210
-4.3578819953356557e-33
220
-4.3578819967695343e-33
230
1
100
AcDbArc
50
0
51
45.000000009424312
0
LINE
5
188
100
AcDbEntity
8
0
100
AcDbLine
10
-102.76713562854999
20
42.29289322101085
30
2.1789409980263163e-33
11
-102.7671356279202
21
38.464466096264857
31
0
0
ARC
5
189
100
AcDbEntity
8
0
100
AcDbCircle
10
-102.2671356279202
20
38.464466096347138
30
0
40
0.50000000000000711
210
1.6778362197249897e-65
220
-1.0195788231247695e-55
230
1
100
AcDbArc
50
180
51
225.00000000942603
0
LINE
5
190
100
AcDbEntity
8
0
100
AcDbLine
10
-102.62068901845531
20
38.110912705695696
30
1.0146484701085752e-42
11
-93.014087299076721
21
28.504310989477865
31
0
0
ARC
5
191
100
AcDbEntity
8
0
100
AcDbCircle
10
-92.660533908541609
20
28.857864380129293
30
0
40
0.499999999999999
210
0
220
0
230
1
100
AcDbArc
50
225.00000000942489
51
270.00000000942379
0
LINE
5
192
100
AcDbEntity
8
0
100
AcDbLine
10
-92.660533908459371
20
28.357864380129293
30
2.1789409980263177e-33
11
-88.832106783713201
21
28.357864380759096
31
0
0
ARC
5
193
100
AcDbEntity
8
0
100
AcDbCircle
10
-88.832106783630977
20
27.857864380759057
30
3.3743678042674255e-55
40
0.50000000000004918
210
7.1746481373432367e-42
220
1.1805792406108729e-51
230
1
100
AcDbArc
50
45.000000009427197
51
90.00000000942218
0
LINE
5
194
100
AcDbEntity
8
0
100
AcDbLine
10
-88.478553393095837
20
28.211417771410542
30
-2.5366211752713378e-42
11
-85.271446611381648
21
25.004310990751605
31
0
0
ARC
5
195
100
AcDbEntity
8
0
100
AcDbCircle
10
-85.62500000191676
20
24.65075760010016
30
1.0263416486754031e-47
40
0.50000000000000711
210
-8.7157639921052283e-33
220
-1.4338431962654713e-42
230
1
100
AcDbArc
50
0
51
45.00000000942633
0
LINE
5
196
100
AcDbEntity
8
0
100
AcDbLine
10
-85.12500000191676
20
24.650757600182409
30
4.3578819960526867e-33
11
-85.125000001480672
21
22.000000002796778
31
0
0
ARC
5
197
100
AcDbEntity
8
0
100
AcDbCircle
10
-83.125000001480686
20
22.000000003125812
30
0
40
1.9999999999999929
210
0
220
0
230
1
100
AcDbArc
50
180
51
270.00000000471232
0
LINE
5
198
100
AcDbEntity
8
0
100
AcDbLine
10
-83.125000001316195
20
20.000000003125802
30
0
11
83.124999998848438
21
20.000000016800627
31
-4.5917748078995606e-40
0
ARC
5
199
100
AcDbEntity
8
0
100
AcDbCircle
10
83.124999998683933
20
22.000000016800605
30
4.1053665947016125e-47
40
1.9999999999999796
210
-9.5911233250667576e-34
220
-2.2966765194274127e-40
230
1
100
AcDbArc
50
-89.999999995287283
51
0
0
LINE
5
200
100
AcDbEntity
8
0
100
AcDbLine
10
85.124999998683904
20
22.000000016965156
30
1.9182246650133731e-33
11
85.124999998465896
21
24.650757612047684
31
0
0
ARC
5
201
100
AcDbEntity
8
0
100
AcDbCircle
10
85.624999998465995
20
24.650757612088743
30
-4.8947748969544596e-55
40
0.50000000000009637
210
2.1523944412034925e-42
220
1.7677234602469694e-52
230
1
100
AcDbArc
50
135.00000000471533
51
180
0
LINE
5
202
100
AcDbEntity
8
0
100
AcDbLine
10
85.271446607843558
20
25.004311002652987
30
7.6098635258140072e-43
11
88.478553388766528
21
28.211417784103354
31
0
0
ARC
5
203
100
AcDbEntity
8
0
100
AcDbCircle
10
88.832106779388852
20
27.857864393539138
30
-3.5323258408578458e-46
40
0.50000000000000266
210
4.3578819964113363e-33
220
-4.3578819956948643e-33
230
1
100
AcDbArc
50
90.000000004712717
51
135.00000000470845
0
LINE
5
204
100
AcDbEntity
8
0
100
AcDbLine
10
88.832106779347725
20
28.357864393539142
30
2.1789409980262985e-33
11
92.660533904093711
21
28.357864393854044
31
1.0761972206014595e-41
0
ARC
5
205
100
AcDbEntity
8
0
100
AcDbCircle
10
92.660533904052556
20
28.857864393854051
30
0
40
0.50000000000000711
210
-1.4349296292403858e-42
220
2.1523944411910766e-41
230
1
100
AcDbArc
50
270.00000000471596
51
315.00000000471272
0
LINE
5
206
100
AcDbEntity
8
0
100
AcDbLine
10
93.014087294674908
20
28.50431100328986
30
5.0732423505425581e-43
11
102.62068901168294
21
38.110912721878265
31
0
0
ARC
5
207
100
AcDbEntity
8
0
100
AcDbCircle
10
102.26713562106059
20
38.464466112442452
30
0
40
0.49999999999999589
210
-4.3578819956941691e-33
220
-4.3578819964110756e-33
230
1
100
AcDbArc
50
-44.999999995286977
51
0
0
LINE
5
208
100
AcDbEntity
8
0
100
AcDbLine
10
102.76713562106059
20
38.464466112483578
30
2.17894099802633e-33
11
102.76713562074569
21
42.292893237229727
31
0
0
ARC
5
209
100
AcDbEntity
8
0
100
AcDbCircle
10
103.26713562074579
20
42.292893237270818
30
1.2796510776171423e-54
40
0.50000000000009326
210
-7.1746481373441263e-42
220
-5.8981041825856781e-52
230
1
100
AcDbArc
50
135.00000000471934
51
180
0
LINE
5
210
100
AcDbEntity
8
0
100
AcDbLine
10
102.91358223012332
20
42.64644662783504
30
-2.5366211752713132e-42
11
106.12068901104607
21
45.853553409285396
31
0
0
ARC
5
211
100
AcDbEntity
8
0
100
AcDbCircle
10
106.47424240166843
20
45.500000018721245
30
-2.5936508746734667e-46
40
0.49999999999998934
210
-4.3578819956935889e-33
220
-4.3578819964117544e-33
230
1
100
AcDbArc
50
90.000000004711097
51
135.00000000471707
0
LINE
5
212
100
AcDbEntity
8
0
100
AcDbLine
10
106.47424240162732
20
46.000000018721238
30
2.1789409980263639e-33
11
109.12499999946536
21
46.000000018939261
31
-2.926931042516266e-43
0
LWPOLYLINE
5
213
100
AcDbEntity
8
0
100
AcDbPolyline
90
4
70
1
43
0.0
10
-62.500000003967443
20
410.41441049846196
10
62.499999996032528
20
410.41441049846196
10
62.499999996032535
20
285.41441049846196
10
-62.500000003967429
20
285.41441049846196
0
LWPOLYLINE
5
214
100
AcDbEntity
8
0
100
AcDbPolyline
90
4
70
1
43
0.0
10
-62.50000000296243
20
200.58558950683465
10
62.499999997037605
20
200.58558950683465
10
62.499999997037605
20
75.585589506834651
10
-62.500000002962466
20
75.585589506834651
0
CIRCLE
5
215
100
AcDbEntity
8
0
100
AcDbCircle
10
-97.625000019227087
20
243.00000000195195
30
0
40
2.5500000000000078
210
3.2678880776587224e-65
220
-1.7440281538685279e-113
230
1
0
CIRCLE
5
216
100
AcDbEntity
8
0
100
AcDbCircle
10
-93.221194081809557
20
37.903805926055455
30
0
40
2.5500000000000078
210
3.2678880776587224e-65
220
-1.7440281538685279e-113
230
1
0
CIRCLE
5
217
100
AcDbEntity
8
0
100
AcDbCircle
10
93.221194075088334
20
37.903805939918563
30
0
40
2.5500000000000078
210
3.2678880776587224e-65
220
-1.7440281538685279e-113
230
1
0
CIRCLE
5
218
100
AcDbEntity
8
0
100
AcDbCircle
10
97.624999998827789
20
243.00000000001836
30
0
40
2.5500000000000078
210
3.2678880776587224e-65
220
-1.7440281538685279e-113
230
1
0
CIRCLE
5
219
100
AcDbEntity
8
0
100
AcDbCircle
10
93.221194080657725
20
448.09619407480466
30
0
40
2.5500000000000078
210
3.2678880776587224e-65
220
-1.7440281538685279e-113
230
1
0
CIRCLE
5
220
100
AcDbEntity
8
0
100
AcDbCircle
10
-93.221194077712838
20
448.09619407774989
30
0
40
2.5500000000000078
210
3.2678880776587224e-65
220
-1.7440281538685279e-113
230
1
0
ARC
5
221
100
AcDbEntity
8
0
100
AcDbCircle
10
109.12499999930085
20
68.000000018692475
30
-5.8159360091606177e-47
40
1.9999999999999929
210
-4.0110830876015922e-42
220
1.2325951644078312e-32
230
1
100
AcDbArc
50
0
51
90
0
LINE
5
222
100
AcDbEntity
8
0
100
AcDbLine
10
109.12499999930085
20
70.000000018692461
30
-2.4651903288156597e-32
11
103.12499999930083
21
70.000000018692489
31
-9.3643735121352266e-58
0
ARC
5
223
100
AcDbEntity
8
0
100
AcDbCircle
10
103.12499999930083
20
72.000000018692475
30
0
40
1.9999999999999929
210
4.0752209296914831e-33
220
-1.8097616426311286e-47
230
1
100
AcDbArc
50
180
51
270
0
LINE
5
224
100
AcDbEntity
8
0
100
AcDbLine
10
101.12499999930083
20
72.000000018692475
30
8.1504418593829375e-33
11
101.12499999930083
21
93.000000018692475
31
0
0
ARC
5
225
100
AcDbEntity
8
0
100
AcDbCircle
10
103.12499999930083
20
93.000000018692447
30
0
40
1.9999999999999929
210
1.7286645019529184e-42
220
3.1755051736744536e-58
230
1
100
AcDbArc
50
90
51
180
0
LINE
5
226
100
AcDbEntity
8
0
100
AcDbLine
10
103.12499999930083
20
95.000000018692447
30
-6.3510103473488845e-58
11
109.12499999930084
21
95.000000018692418
31
9.3643735121351983e-58
0
ARC
5
227
100
AcDbEntity
8
0
100
AcDbCircle
10
109.12499999930084
20
97.000000018692432
30
1.967154826627856e-47
40
2.0000000000000107
210
-1.6756742127618568e-33
220
-9.835774132671009e-48
230
1
100
AcDbArc
50
-90
51
0
0
LINE
5
228
100
AcDbEntity
8
0
100
AcDbLine
10
111.12499999930085
20
48.000000018939268
30
-3.5583969205310867e-33
11
111.12499999930085
21
68.000000018692475
31
8.0221080158430647e-42
0
ENDSEC
0
SECTION
2
OBJECTS
0
DICTIONARY
5
C
100
AcDbDictionary
3
ACAD_GROUP
350
D
3
ACAD_MLINESTYLE
350
17
0
DICTIONARY
5
D
100
AcDbDictionary
0
DICTIONARY
5
1A
330
C
100
AcDbDictionary
0
DICTIONARY
5
17
100
AcDbDictionary
0
ENDSEC
0
EOF
