0
SECTION
2
HEADER
9
$INSUNITS
70
4
9
$ACADVER
1
AC1014
9
$HANDSEED
5
FFFF
0
ENDSEC
0
SECTION
2
TABLES
0
TABLE
2
VPORT
5
8
100
AcDbSymbolTable
0
ENDTAB
0
TABLE
2
LTYPE
5
5
100
AcDbSymbolTable
0
LTYPE
5
14
100
AcDbSymbolTableRecord
100
AcDbLinetypeTableRecord
2
BYBLOCK
70
0
0
LTYPE
5
15
100
AcDbSymbolTableRecord
100
AcDbLinetypeTableRecord
2
BYLAYER
70
0
0
LTYPE
5
16
100
AcDbSymbolTableRecord
100
AcDbLinetypeTableRecord
2
DASHED
70
0
3
Dashed __ __ __ __ __ __ __ __ __ __ __ __ __ _
72
65
73
2
40
0.75
49
0.5
74
0
49
-0.25
74
0
0
ENDTAB
0
TABLE
2
LAYER
5
2
100
AcDbSymbolTable
70
2
0
LAYER
5
50
100
AcDbSymbolTableRecord
100
AcDbLayerTableRecord
2
0
70
0
62
7
6
CONTINUOUS
0
ENDTAB
0
TABLE
2
STYLE
5
3
100
AcDbSymbolTable
70
1
0
STYLE
5
11
100
AcDbSymbolTableRecord
100
AcDbTextStyleTableRecord
2
STANDARD
70
0
0
ENDTAB
0
TABLE
2
VIEW
5
6
100
AcDbSymbolTable
70
0
0
ENDTAB
0
TABLE
2
UCS
5
7
100
AcDbSymbolTable
70
0
0
ENDTAB
0
TABLE
2
APPID
5
9
100
AcDbSymbolTable
70
2
0
APPID
5
12
100
AcDbSymbolTableRecord
100
AcDbRegAppTableRecord
2
ACAD
70
0
0
ENDTAB
0
TABLE
2
DIMSTYLE
5
A
100
AcDbSymbolTable
70
1
0
ENDTAB
0
TABLE
2
BLOCK_RECORD
5
1
100
AcDbSymbolTable
70
1
0
BLOCK_RECORD
5
1F
100
AcDbSymbolTableRecord
100
AcDbBlockTableRecord
2
*MODEL_SPACE
0
BLOCK_RECORD
5
1B
100
AcDbSymbolTableRecord
100
AcDbBlockTableRecord
2
*PAPER_SPACE
0
ENDTAB
0
ENDSEC
0
SECTION
2
BLOCKS
0
BLOCK
5
20
100
AcDbEntity
100
AcDbBlockBegin
2
*MODEL_SPACE
0
ENDBLK
5
21
100
AcDbEntity
100
AcDbBlockEnd
0
BLOCK
5
1C
100
AcDbEntity
100
AcDbBlockBegin
2
*PAPER_SPACE
0
ENDBLK
5
1D
100
AcDbEntity
100
AcDbBlockEnd
0
ENDSEC
0
SECTION
2
ENTITIES
0
CIRCLE
5
100
100
AcDbEntity
8
0
100
AcDbCircle
10
104.01473492982738
20
435.01470232147136
30
0
40
2.5500000000000078
210
0
220
0
230
1
0
CIRCLE
5
101
100
AcDbEntity
8
0
100
AcDbCircle
10
-104.01470232028423
20
435.01473492776552
30
0
40
2.5500000000000078
210
0
220
0
230
1
0
CIRCLE
5
102
100
AcDbEntity
8
0
100
AcDbCircle
10
46.242643217266412
20
454.64264068661242
30
0
40
2.5499999999999989
210
0
220
0
230
1
0
CIRCLE
5
103
100
AcDbEntity
8
0
100
AcDbCircle
10
104.01470232161674
20
50.985265071836352
30
0
40
2.5500000000000078
210
0
220
0
230
1
0
CIRCLE
5
104
100
AcDbEntity
8
0
100
AcDbCircle
10
-46.242638156972248
20
454.64264068661225
30
0
40
2.5499999999999989
210
0
220
0
230
1
0
CIRCLE
5
105
100
AcDbEntity
8
0
100
AcDbCircle
10
2.530147012537652e-06
20
411.89999999949242
30
0
40
2.5499999999999998
210
0
220
0
230
1
0
CIRCLE
5
106
100
AcDbEntity
8
0
100
AcDbCircle
10
-104.01473493089696
20
50.985297677826452
30
0
40
2.5500000000000078
210
0
220
0
230
1
0
LWPOLYLINE
5
107
100
AcDbEntity
8
0
100
AcDbPolyline
90
20
70
1
43
0.0
10
-49.999997469853035
20
425.81421356186553
10
-49.999997469853056
20
445.39999999949248
42
-0.41421356237309509
10
-48.999997469853042
20
446.39999999949248
10
49.000002530146965
20
446.39999999949248
42
-0.4142135623731002
10
50.000002530146979
20
445.39999999949248
10
50.000002530147121
20
425.8142135618657
42
-0.19891236737965798
10
49.707109311333618
20
425.10710678067903
10
38.292895748960298
20
413.69289321830587
42
-0.19891236737965881
10
37.585788967773787
20
413.39999999949242
10
29.41421609252011
20
413.39999999949242
42
-0.19891236737965221
10
28.707109311333561
20
413.69289321830587
10
24.292895748960248
20
418.10710678067892
42
0.19891236737956058
10
23.585788967773695
20
418.39999999949242
10
-23.585783907479644
20
418.39999999949242
42
0.19891236737955645
10
-24.292890688666247
20
418.10710678067903
10
-28.707104251039507
20
413.69289321830587
42
-0.19891236737964255
10
-29.414211032226071
20
413.39999999949242
10
-37.585783907479993
20
413.39999999949242
42
-0.19891236737966422
10
-38.292890688666539
20
413.69289321830593
10
-49.707104251039603
20
425.10710678067903
42
-0.19891236737965143
0
LWPOLYLINE
5
108
100
AcDbEntity
8
0
100
AcDbPolyline
90
64
70
1
43
0.0
10
100.82860568982656
20
39.020993847326935
42
0.19891236737967272
10
101.53571247101318
20
39.313887066140389
10
115.68611293234926
20
53.464287527476415
42
0.19891236737966228
10
115.97900615116275
20
54.17139430866299
10
115.97900615116272
20
57.585607871035684
42
-0.19891236737966794
10
116.27189936997615
20
58.29271465222223
10
119.18629149922265
20
61.207106781468724
42
-0.1989123673796678
10
119.89339828040919
20
61.500000000282199
10
132.39999999967114
20
61.500000000282213
42
0.41421356237310542
10
134.39999999967111
20
63.500000000282242
10
134.39999999967065
20
422.49999494257139
42
0.41421356237477558
10
132.39999999965889
20
424.49999494257145
10
119.89340333968271
20
424.49999494257901
42
-0.19891236737964935
10
119.18629655849614
20
424.79288816139251
10
116.27189937331451
20
427.70728534657422
42
-0.19891236737967533
10
115.97900615450115
20
428.41439212776083
10
115.97900615450128
20
431.8286056901336
42
0.19891236737966342
10
115.68611293568786
20
432.53571247132015
10
101.53571247435181
20
446.68611293265621
42
0.19891236737967105
10
100.82860569316523
20
446.97900615146972
10
97.414392130792535
20
446.97900615146983
42
-0.19891236737972112
10
96.707285349606025
20
447.27189937028322
10
93.792893220359502
20
450.18629149952966
42
-0.19891236737958295
10
93.500000001546013
20
450.89339828071616
10
93.500000001546013
20
463.39999999931968
42
0.41421356237307427
10
91.500000001546027
20
465.39999999931973
10
-91.499994941268568
20
465.39999999931973
42
0.41421356237307427
10
-93.499994941268554
20
463.39999999931968
10
-93.49999494126854
20
450.89340333745639
42
-0.19891236737963308
10
-93.792888160082015
20
450.18629655626978
10
-96.707285345263742
20
447.27189937108818
42
-0.19891236737963597
10
-97.414392126450309
20
446.97900615227479
10
-100.82860568882307
20
446.97900615227496
42
0.19891236737966539
10
-101.53571247000967
20
446.68611293346152
10
-115.68611293134578
20
432.53571247212551
42
0.19891236737966456
10
-115.97900615015925
20
431.8286056909389
10
-115.97900615015929
20
428.41439212856631
42
-0.19891236737966331
10
-116.2718993689727
20
427.7072853473797
10
-119.18629149821912
20
424.7928932181332
42
-0.19891236737962509
10
-119.89339827940572
20
424.4999999993197
10
-132.4000000000002
20
424.4999999993197
42
0.41421356237308726
10
-134.4000000000002
20
422.49999999931964
10
-134.40000000000003
20
63.500005057022051
42
0.41421356237656792
10
-132.39999999997633
20
61.500005057022051
10
-119.8934033407523
20
61.500005057006639
42
-0.19891236737967116
10
-119.18629655956572
20
61.207111838193157
10
-116.27189937438418
20
58.292714653011473
42
-0.19891236737965096
10
-115.97900615557074
20
57.585607871824905
10
-115.97900615557087
20
54.171394309452126
42
0.19891236737967027
10
-115.68611293675743
20
53.464287528265515
10
-101.53571247542139
20
39.313887066929425
42
0.19891236737966456
10
-100.82860569423481
20
39.02099384811595
10
-97.414392131862115
20
39.020993848115957
42
-0.19891236737965476
10
-96.707285350675562
20
38.72810062930251
10
-93.792893221429068
20
35.813708500056023
42
-0.1989123673796647
10
-93.500000002615607
20
35.10660171886947
10
-93.500000002615593
20
22.600000000018724
42
0.41421356237309825
10
-91.500000002615636
20
20.600000000018731
10
91.499994942272053
20
20.600000000018973
42
0.41421356237309509
10
93.499994942272053
20
22.60000000001898
10
93.499994942272053
20
35.106596662145499
42
-0.1989123673796632
10
93.792888161085529
20
35.813703443332074
10
96.707285346267213
20
38.728100628513637
42
-0.19891236737966206
10
97.41439212745378
20
39.020993847327063
0
ENDSEC
0
SECTION
2
OBJECTS
0
DICTIONARY
5
C
100
AcDbDictionary
3
ACAD_GROUP
350
D
3
ACAD_MLINESTYLE
350
17
0
DICTIONARY
5
D
100
AcDbDictionary
0
DICTIONARY
5
1A
330
C
100
AcDbDictionary
0
DICTIONARY
5
17
100
AcDbDictionary
0
ENDSEC
0
EOF
